<svg width="250" height="250" viewBox="0 0 250 250" fill="none" xmlns="http://www.w3.org/2000/svg">
<g filter="url(#filter0_d_107_4)">
<g filter="url(#filter1_d_107_4)">
<mask id="path-1-outside-1_107_4" maskUnits="userSpaceOnUse" x="54" y="57" width="139" height="144" fill="black">
<rect fill="white" x="54" y="57" width="139" height="144"/>
<path d="M58.0547 58.7656C66.7786 59.1562 73.5495 59.3516 78.3672 59.3516H85.5938C87.6771 59.3516 90.2812 59.2865 93.4062 59.1562C96.0104 59.026 99.3307 58.9609 103.367 58.9609C107.404 58.8307 112.221 58.6354 117.82 58.375C115.216 60.1979 113.133 61.9557 111.57 63.6484C110.008 65.3411 108.771 66.8385 107.859 68.1406C106.818 69.7031 106.102 71.1354 105.711 72.4375C104.799 75.8229 104.409 80.4453 104.539 86.3047C104.799 92.0339 105.385 98.2839 106.297 105.055C107.208 111.695 108.315 118.466 109.617 125.367C110.919 132.268 112.221 138.518 113.523 144.117C114.956 149.716 116.193 154.339 117.234 157.984C118.406 161.5 119.253 163.258 119.773 163.258C120.294 163.258 121.271 161.37 122.703 157.594C124.266 153.818 126.023 149.065 127.977 143.336C129.93 137.477 131.948 131.161 134.031 124.391C136.115 117.49 138.003 110.979 139.695 104.859C141.518 98.6094 143.016 93.2708 144.188 88.8438C145.359 84.2865 145.945 81.487 145.945 80.4453C145.815 79.013 145.359 77.5156 144.578 75.9531C143.927 74.5208 142.755 72.8932 141.062 71.0703C139.5 69.1172 137.286 66.9036 134.422 64.4297C138.458 64.2995 141.909 64.1693 144.773 64.0391C147.768 63.9089 150.307 63.8438 152.391 63.8438H158.445H189.695C186.44 66.0573 183.641 68.2057 181.297 70.2891C179.083 72.3724 177.26 74.3255 175.828 76.1484C174.135 78.2318 172.703 80.1849 171.531 82.0078C170.229 84.7422 168.081 90.6667 165.086 99.7812C163.784 103.688 162.286 108.44 160.594 114.039C158.901 119.638 156.883 126.344 154.539 134.156C152.195 141.969 149.591 151.018 146.727 161.305C143.862 171.461 140.607 183.049 136.961 196.07L109.812 199.586C106.557 189.43 103.693 180.185 101.219 171.852C98.875 163.388 96.7917 156.161 94.9688 150.172C92.8854 143.141 91.1276 136.826 89.6953 131.227C87.7422 124.456 86.0495 117.62 84.6172 110.719C83.3151 103.688 82.1432 97.3724 81.1016 91.7734C80.1901 86.0443 79.3438 81.2917 78.5625 77.5156C77.7812 73.7396 76.9349 71.526 76.0234 70.875C75.2422 70.224 74.0703 69.3776 72.5078 68.3359C71.0755 67.4245 69.2526 66.2526 67.0391 64.8203C64.6953 63.2578 61.7005 61.2396 58.0547 58.7656Z"/>
</mask>
<path d="M58.0547 58.7656C66.7786 59.1562 73.5495 59.3516 78.3672 59.3516H85.5938C87.6771 59.3516 90.2812 59.2865 93.4062 59.1562C96.0104 59.026 99.3307 58.9609 103.367 58.9609C107.404 58.8307 112.221 58.6354 117.82 58.375C115.216 60.1979 113.133 61.9557 111.57 63.6484C110.008 65.3411 108.771 66.8385 107.859 68.1406C106.818 69.7031 106.102 71.1354 105.711 72.4375C104.799 75.8229 104.409 80.4453 104.539 86.3047C104.799 92.0339 105.385 98.2839 106.297 105.055C107.208 111.695 108.315 118.466 109.617 125.367C110.919 132.268 112.221 138.518 113.523 144.117C114.956 149.716 116.193 154.339 117.234 157.984C118.406 161.5 119.253 163.258 119.773 163.258C120.294 163.258 121.271 161.37 122.703 157.594C124.266 153.818 126.023 149.065 127.977 143.336C129.93 137.477 131.948 131.161 134.031 124.391C136.115 117.49 138.003 110.979 139.695 104.859C141.518 98.6094 143.016 93.2708 144.188 88.8438C145.359 84.2865 145.945 81.487 145.945 80.4453C145.815 79.013 145.359 77.5156 144.578 75.9531C143.927 74.5208 142.755 72.8932 141.062 71.0703C139.5 69.1172 137.286 66.9036 134.422 64.4297C138.458 64.2995 141.909 64.1693 144.773 64.0391C147.768 63.9089 150.307 63.8438 152.391 63.8438H158.445H189.695C186.44 66.0573 183.641 68.2057 181.297 70.2891C179.083 72.3724 177.26 74.3255 175.828 76.1484C174.135 78.2318 172.703 80.1849 171.531 82.0078C170.229 84.7422 168.081 90.6667 165.086 99.7812C163.784 103.688 162.286 108.44 160.594 114.039C158.901 119.638 156.883 126.344 154.539 134.156C152.195 141.969 149.591 151.018 146.727 161.305C143.862 171.461 140.607 183.049 136.961 196.07L109.812 199.586C106.557 189.43 103.693 180.185 101.219 171.852C98.875 163.388 96.7917 156.161 94.9688 150.172C92.8854 143.141 91.1276 136.826 89.6953 131.227C87.7422 124.456 86.0495 117.62 84.6172 110.719C83.3151 103.688 82.1432 97.3724 81.1016 91.7734C80.1901 86.0443 79.3438 81.2917 78.5625 77.5156C77.7812 73.7396 76.9349 71.526 76.0234 70.875C75.2422 70.224 74.0703 69.3776 72.5078 68.3359C71.0755 67.4245 69.2526 66.2526 67.0391 64.8203C64.6953 63.2578 61.7005 61.2396 58.0547 58.7656Z" fill="#DA693F"/>
<path d="M58.0547 58.7656L58.0994 57.7666L54.5686 57.6085L57.4932 59.5931L58.0547 58.7656ZM93.4062 59.1562L93.4479 60.1554L93.4562 60.155L93.4062 59.1562ZM103.367 58.9609V59.9609H103.383L103.399 59.9604L103.367 58.9609ZM117.82 58.375L118.394 59.1942L121.22 57.2158L117.774 57.3761L117.82 58.375ZM107.859 68.1406L107.04 67.5672L107.034 67.5765L107.027 67.5859L107.859 68.1406ZM105.711 72.4375L104.753 72.1502L104.749 72.1638L104.745 72.1775L105.711 72.4375ZM104.539 86.3047L103.539 86.3269L103.54 86.3385L103.54 86.3501L104.539 86.3047ZM106.297 105.055L105.306 105.188L105.306 105.191L106.297 105.055ZM113.523 144.117L112.549 144.344L112.552 144.354L112.555 144.365L113.523 144.117ZM117.234 157.984L116.273 158.259L116.279 158.28L116.286 158.301L117.234 157.984ZM122.703 157.594L121.779 157.211L121.773 157.225L121.768 157.239L122.703 157.594ZM127.977 143.336L128.923 143.659L128.925 143.652L127.977 143.336ZM134.031 124.391L134.987 124.685L134.989 124.68L134.031 124.391ZM139.695 104.859L138.735 104.579L138.732 104.593L139.695 104.859ZM144.188 88.8438L145.154 89.0996L145.156 89.0928L144.188 88.8438ZM145.945 80.4453H146.945V80.3999L146.941 80.3548L145.945 80.4453ZM144.578 75.9531L143.668 76.3669L143.675 76.3838L143.684 76.4003L144.578 75.9531ZM141.062 71.0703L140.282 71.695L140.305 71.7238L140.33 71.7508L141.062 71.0703ZM134.422 64.4297L134.39 63.4302L131.83 63.5128L133.768 65.1865L134.422 64.4297ZM144.773 64.0391L144.73 63.04L144.728 63.0401L144.773 64.0391ZM189.695 63.8438L190.258 64.6707L192.944 62.8438H189.695V63.8438ZM181.297 70.2891L180.633 69.5417L180.622 69.5511L180.612 69.5609L181.297 70.2891ZM175.828 76.1484L176.604 76.779L176.609 76.7727L176.614 76.7663L175.828 76.1484ZM171.531 82.0078L170.69 81.4671L170.656 81.5205L170.628 81.5779L171.531 82.0078ZM165.086 99.7812L166.035 100.097L166.036 100.093L165.086 99.7812ZM146.727 161.305L147.689 161.576L147.69 161.573L146.727 161.305ZM136.961 196.07L137.089 197.062L137.746 196.977L137.924 196.34L136.961 196.07ZM109.812 199.586L108.86 199.891L109.115 200.685L109.941 200.578L109.812 199.586ZM101.219 171.852L100.255 172.118L100.257 172.127L100.26 172.136L101.219 171.852ZM94.9688 150.172L94.0099 150.456L94.0121 150.463L94.9688 150.172ZM89.6953 131.227L90.6641 130.979L90.6603 130.964L90.6561 130.949L89.6953 131.227ZM84.6172 110.719L83.6339 110.901L83.6359 110.911L83.6381 110.922L84.6172 110.719ZM81.1016 91.7734L80.114 91.9305L80.116 91.9435L80.1184 91.9563L81.1016 91.7734ZM76.0234 70.875L75.3833 71.6432L75.4119 71.6671L75.4422 71.6887L76.0234 70.875ZM72.5078 68.3359L73.0625 67.5039L73.0537 67.498L73.0447 67.4923L72.5078 68.3359ZM67.0391 64.8203L66.4843 65.6524L66.4958 65.6599L67.0391 64.8203ZM58.01 59.7646C66.739 60.1555 73.5272 60.3516 78.3672 60.3516V58.3516C73.5718 58.3516 66.8183 58.157 58.0994 57.7666L58.01 59.7646ZM78.3672 60.3516H85.5938V58.3516H78.3672V60.3516ZM85.5938 60.3516C87.696 60.3516 90.3151 60.2859 93.4479 60.1554L93.3646 58.1571C90.2474 58.287 87.6582 58.3516 85.5938 58.3516V60.3516ZM93.4562 60.155C96.0373 60.0259 99.3394 59.9609 103.367 59.9609V57.9609C99.322 57.9609 95.9835 58.0261 93.3563 58.1575L93.4562 60.155ZM103.399 59.9604C107.442 59.83 112.265 59.6345 117.867 59.3739L117.774 57.3761C112.178 57.6364 107.365 57.8314 103.335 57.9615L103.399 59.9604ZM117.247 57.5558C114.604 59.4055 112.461 61.2092 110.836 62.9702L112.305 64.3267C113.805 62.7022 115.828 60.9904 118.394 59.1942L117.247 57.5558ZM110.836 62.9702C109.255 64.6826 107.986 66.216 107.04 67.5672L108.679 68.7141C109.556 67.4611 110.761 65.9997 112.305 64.3267L110.836 62.9702ZM107.027 67.5859C105.95 69.2018 105.181 70.7248 104.753 72.1502L106.669 72.7248C107.022 71.546 107.685 70.2044 108.691 68.6953L107.027 67.5859ZM104.745 72.1775C103.798 75.6959 103.408 80.427 103.539 86.3269L105.539 86.2825C105.41 80.4636 105.801 75.9499 106.677 72.6975L104.745 72.1775ZM103.54 86.3501C103.802 92.1136 104.391 98.3934 105.306 105.188L107.288 104.921C106.38 98.1743 105.797 91.9541 105.538 86.2593L103.54 86.3501ZM105.306 105.191C106.22 111.849 107.329 118.636 108.635 125.553L110.6 125.182C109.301 118.296 108.197 111.542 107.288 104.919L105.306 105.191ZM108.635 125.553C109.939 132.465 111.244 138.729 112.549 144.344L114.497 143.891C113.199 138.308 111.9 132.072 110.6 125.182L108.635 125.553ZM112.555 144.365C113.988 149.969 115.228 154.601 116.273 158.259L118.196 157.71C117.158 154.076 115.923 149.463 114.492 143.869L112.555 144.365ZM116.286 158.301C116.875 160.07 117.396 161.436 117.847 162.373C118.07 162.837 118.297 163.24 118.532 163.542C118.65 163.693 118.796 163.853 118.973 163.983C119.149 164.111 119.423 164.258 119.773 164.258V162.258C119.994 162.258 120.128 162.35 120.152 162.368C120.18 162.388 120.165 162.383 120.111 162.314C120.004 162.177 119.849 161.921 119.649 161.506C119.254 160.685 118.765 159.415 118.183 157.668L116.286 158.301ZM119.773 164.258C120.139 164.258 120.42 164.096 120.587 163.972C120.762 163.841 120.91 163.68 121.033 163.525C121.279 163.214 121.53 162.794 121.785 162.301C122.3 161.305 122.918 159.846 123.638 157.948L121.768 157.239C121.056 159.117 120.47 160.49 120.008 161.382C119.775 161.833 119.594 162.121 119.466 162.282C119.401 162.364 119.377 162.379 119.393 162.367C119.402 162.36 119.538 162.258 119.773 162.258V164.258ZM123.627 157.976C125.201 154.174 126.966 149.399 128.923 143.659L127.03 143.013C125.081 148.731 123.331 153.462 121.779 157.211L123.627 157.976ZM128.925 143.652C130.881 137.784 132.902 131.462 134.987 124.685L133.075 124.097C130.994 130.861 128.978 137.169 127.028 143.02L128.925 143.652ZM134.989 124.68C137.074 117.772 138.964 111.254 140.659 105.126L138.732 104.593C137.041 110.704 135.155 117.207 133.074 124.102L134.989 124.68ZM140.655 105.139C142.48 98.8844 143.98 93.5374 145.154 89.0996L143.221 88.5879C142.052 93.0043 140.557 98.3344 138.735 104.579L140.655 105.139ZM145.156 89.0928C145.744 86.8075 146.187 84.9519 146.485 83.531C146.775 82.1419 146.945 81.0845 146.945 80.4453H144.945C144.945 80.8478 144.822 81.711 144.527 83.1213C144.239 84.4999 143.803 86.3227 143.219 88.5947L145.156 89.0928ZM146.941 80.3548C146.798 78.7748 146.298 77.1567 145.473 75.5059L143.684 76.4003C144.421 77.8746 144.833 79.2513 144.949 80.5359L146.941 80.3548ZM145.488 75.5393C144.775 73.9693 143.524 72.2513 141.795 70.3899L140.33 71.7508C141.987 73.5351 143.079 75.0723 143.668 76.3669L145.488 75.5393ZM141.843 70.4456C140.228 68.427 137.965 66.1687 135.075 63.6729L133.768 65.1865C136.607 67.6386 138.772 69.8074 140.282 71.695L141.843 70.4456ZM134.454 65.4292C138.493 65.2989 141.949 65.1685 144.819 65.038L144.728 63.0401C141.869 63.17 138.423 63.3001 134.39 63.4302L134.454 65.4292ZM144.817 65.0381C147.803 64.9083 150.327 64.8438 152.391 64.8438V62.8438C150.288 62.8438 147.734 62.9094 144.73 63.04L144.817 65.0381ZM152.391 64.8438H158.445V62.8438H152.391V64.8438ZM158.445 64.8438H189.695V62.8438H158.445V64.8438ZM189.133 63.0168C185.851 65.2488 183.015 67.4235 180.633 69.5417L181.961 71.0365C184.266 68.988 187.03 66.8658 190.258 64.6707L189.133 63.0168ZM180.612 69.5609C178.372 71.6685 176.513 73.6585 175.042 75.5306L176.614 76.7663C178.008 74.9925 179.795 73.0762 181.982 71.0173L180.612 69.5609ZM175.052 75.5178C173.341 77.6234 171.886 79.6067 170.69 81.4671L172.372 82.5486C173.52 80.7631 174.93 78.8401 176.604 76.779L175.052 75.5178ZM170.628 81.5779C169.294 84.38 167.127 90.3671 164.136 99.4691L166.036 100.093C169.035 90.9662 171.164 85.1044 172.434 82.4377L170.628 81.5779ZM164.137 99.465C162.831 103.383 161.331 108.145 159.637 113.75L161.551 114.328C163.242 108.735 164.736 103.992 166.035 100.097L164.137 99.465ZM159.637 113.75C157.944 119.35 155.925 126.056 153.581 133.869L155.497 134.444C157.841 126.632 159.859 119.927 161.551 114.328L159.637 113.75ZM153.581 133.869C151.235 141.689 148.629 150.745 145.763 161.036L147.69 161.573C150.553 151.291 153.156 142.248 155.497 134.444L153.581 133.869ZM145.764 161.033C142.899 171.19 139.644 182.779 135.998 195.801L137.924 196.34C141.57 183.32 144.825 171.732 147.689 161.576L145.764 161.033ZM136.833 195.079L109.684 198.594L109.941 200.578L137.089 197.062L136.833 195.079ZM110.765 199.281C107.511 189.13 104.649 179.892 102.177 171.567L100.26 172.136C102.737 180.478 105.603 189.73 108.86 199.891L110.765 199.281ZM102.182 171.585C99.8373 163.116 97.7515 155.881 95.9254 149.881L94.0121 150.463C95.8318 156.442 97.9127 163.66 100.255 172.118L102.182 171.585ZM95.9275 149.888C93.8469 142.866 92.0926 136.563 90.6641 130.979L88.7265 131.474C90.1626 137.088 91.924 143.416 94.01 150.456L95.9275 149.888ZM90.6561 130.949C88.7101 124.203 87.0235 117.392 85.5963 110.516L83.6381 110.922C85.0755 117.848 86.7743 124.708 88.7345 131.504L90.6561 130.949ZM85.6005 110.537C84.2983 103.505 83.1264 97.1898 82.0847 91.5905L80.1184 91.9563C81.16 97.555 82.3319 103.87 83.6339 110.901L85.6005 110.537ZM82.0891 91.6163C81.1763 85.8787 80.3273 81.1096 79.5418 77.313L77.5832 77.7182C78.3602 81.4737 79.2039 86.2099 80.114 91.9305L82.0891 91.6163ZM79.5418 77.313C79.1461 75.4006 78.7263 73.8445 78.2758 72.6663C77.8454 71.5404 77.3202 70.5723 76.6047 70.0613L75.4422 71.6887C75.6381 71.8287 75.9919 72.2929 76.4077 73.3806C76.8036 74.4159 77.1977 75.8546 77.5832 77.7182L79.5418 77.313ZM76.6636 70.1068C75.8412 69.4214 74.6344 68.5518 73.0625 67.5039L71.9531 69.168C73.5063 70.2034 74.6432 71.0265 75.3833 71.6432L76.6636 70.1068ZM73.0447 67.4923C71.6153 66.5827 69.7948 65.4123 67.5823 63.9807L66.4958 65.6599C68.7105 67.0929 70.5357 68.2663 71.9709 69.1796L73.0447 67.4923ZM67.5938 63.9883C65.2532 62.4279 62.2609 60.4113 58.6162 57.9381L57.4932 59.5931C61.1402 62.0678 64.1374 64.0878 66.4844 65.6524L67.5938 63.9883Z" fill="black" mask="url(#path-1-outside-1_107_4)"/>
</g>
</g>
<defs>
<filter id="filter0_d_107_4" x="54.0547" y="58.375" width="139.641" height="149.211" filterUnits="userSpaceOnUse" color-interpolation-filters="sRGB">
<feFlood flood-opacity="0" result="BackgroundImageFix"/>
<feColorMatrix in="SourceAlpha" type="matrix" values="0 0 0 0 0 0 0 0 0 0 0 0 0 0 0 0 0 0 127 0" result="hardAlpha"/>
<feOffset dy="4"/>
<feGaussianBlur stdDeviation="2"/>
<feComposite in2="hardAlpha" operator="out"/>
<feColorMatrix type="matrix" values="0 0 0 0 0 0 0 0 0 0 0 0 0 0 0 0 0 0 0.25 0"/>
<feBlend mode="normal" in2="BackgroundImageFix" result="effect1_dropShadow_107_4"/>
<feBlend mode="normal" in="SourceGraphic" in2="effect1_dropShadow_107_4" result="shape"/>
</filter>
<filter id="filter1_d_107_4" x="54.0547" y="58.375" width="139.641" height="149.211" filterUnits="userSpaceOnUse" color-interpolation-filters="sRGB">
<feFlood flood-opacity="0" result="BackgroundImageFix"/>
<feColorMatrix in="SourceAlpha" type="matrix" values="0 0 0 0 0 0 0 0 0 0 0 0 0 0 0 0 0 0 127 0" result="hardAlpha"/>
<feOffset dy="4"/>
<feGaussianBlur stdDeviation="2"/>
<feComposite in2="hardAlpha" operator="out"/>
<feColorMatrix type="matrix" values="0 0 0 0 0 0 0 0 0 0 0 0 0 0 0 0 0 0 0.25 0"/>
<feBlend mode="normal" in2="BackgroundImageFix" result="effect1_dropShadow_107_4"/>
<feBlend mode="normal" in="SourceGraphic" in2="effect1_dropShadow_107_4" result="shape"/>
</filter>
</defs>
</svg>
